<svg xmlns="http://www.w3.org/2000/svg" version="1.1" xmlns:xlink="http://www.w3.org/1999/xlink" xmlns:svgjs="http://svgjs.com/svgjs" width="512" height="512" x="0" y="0" viewBox="0 0 850 850" style="enable-background:new 0 0 512 512" xml:space="preserve" class=""><g><linearGradient id="a" x1="-.001" x2="850.001" y1="425" y2="425" gradientUnits="userSpaceOnUse"><stop offset="0" stop-color="#f071ab"></stop><stop offset="1" stop-color="#22abe2"></stop></linearGradient><circle cx="425" cy="425" r="425" fill="url(#a)" data-original="url(#a)" class=""></circle><g fill="#fff" fill-rule="nonzero"><path d="M262 455c-2 2-3 6 0 8 2 3 6 3 8 1 94-83 96-215 93-262l121 121 120 120c-47-3-178-1-262 93-2 3-2 6 1 9 2 2 6 2 9-1 95-107 256-89 267-88 2 1 4 0 5-1 3-3 3-7 0-9L492 314 360 182c-1-2-3-2-5-2-3 0-6 4-5 7s22 170-88 268z" fill="#ffffff" data-original="#ffffff" class=""></path><path d="m271 455 80 81c3 2 3 6 0 8l-30 31c-12 12-29 19-45 19s-32-7-45-19c-12-12-18-29-18-45s6-32 18-45l31-30c2-3 6-3 9 0zm67 85-72-72-26 26c-10 10-15 23-15 36s5 26 15 36 23 15 36 15 26-5 36-15zM525 281c12 12 19 27 22 42 4 16 2 32-4 47l-5-2 5 2c-1 3-5 5-8 3-1 0-1 0-2-1l-49-49-50-50c-2-2-2-6 0-9 1 0 2-1 2-1 15-6 32-7 47-4 16 3 30 11 42 22zm10 44c-2-13-9-25-19-35s-22-16-35-19c-10-2-21-2-31 1l42 42 43 42c2-10 2-20 0-31zM603 212c2-2 2-6 0-9-2-2-6-2-9 0l-31 31c-2 3-2 7 0 9 3 2 7 2 9 0zM631 292c3 0 6-3 6-6 0-4-3-6-6-6h-44c-3 0-6 2-6 6 0 3 3 6 6 6zM594 368c3 3 7 3 9 0 2-2 2-6 0-8l-31-31c-2-3-6-3-9 0-2 2-2 6 0 8zM447 203c-3-2-7-2-9 0-2 3-2 7 0 9l31 31c2 2 6 2 9 0 2-2 2-6 0-9zM527 175c0-3-3-6-6-6-4 0-7 3-7 6v44c0 3 3 6 7 6 3 0 6-3 6-6z" fill="#ffffff" data-original="#ffffff" class=""></path><path d="M369 518c-2-3-6-3-8 0h-1c-3 3-6 5-9 8-3 4-6 7-9 10l10 8c3-3 5-6 8-9l5-5 117 104-32 32-125-105c-3-2-7-1-9 1-2 3-2 7 1 9l129 108c2 3 6 3 9 0l40-41h1c2-3 2-6-1-9l-4 5 4-5zm-4 4 4-5v1c-2-3-6-3-8-1z" fill="#ffffff" data-original="#ffffff" class=""></path></g></g></svg>