<svg xmlns="http://www.w3.org/2000/svg" version="1.1" xmlns:xlink="http://www.w3.org/1999/xlink" xmlns:svgjs="http://svgjs.com/svgjs" width="512" height="512" x="0" y="0" viewBox="0 0 512 512" style="enable-background:new 0 0 512 512" xml:space="preserve" class=""><g><linearGradient id="a" x1="28.759" x2="383.635" y1="474.105" y2="119.228" gradientTransform="matrix(1 0 0 -1 0 510)" gradientUnits="userSpaceOnUse"><stop stop-opacity="1" stop-color="#59ffc2" offset="0"></stop><stop stop-opacity="1" stop-color="#00bebf" offset="0"></stop></linearGradient><path fill="url(#a)" d="M456.943 28.071C448.835 10.762 431.919 0 412.788 0H74.752C61.288 0 50.371 10.917 50.371 24.381v463.238c0 13.464 10.917 24.381 24.381 24.381s24.381-10.917 24.381-24.381V341.333h313.655c19.131 0 36.048-10.762 44.155-28.071 8.119-17.321 5.56-37.214-6.69-51.905l-75.571-90.691 75.583-90.691c12.237-14.689 14.797-34.582 6.678-51.904zM324.216 155.059c-7.536 9.036-7.536 22.179 0 31.214l88.571 106.298H99.133V48.762H412.8z" data-original="url(#a)" class=""></path></g></svg>