<svg xmlns="http://www.w3.org/2000/svg" version="1.1" xmlns:xlink="http://www.w3.org/1999/xlink" xmlns:svgjs="http://svgjs.com/svgjs" width="512" height="512" x="0" y="0" viewBox="0 0 512 512" style="enable-background:new 0 0 512 512" xml:space="preserve" class=""><g><g fill="#60c2dc"><rect width="34.14" height="224.073" x="349.411" y="-88.967" rx="17.07" transform="rotate(90 366.481 23.07)" fill="#01acad" data-original="#60c2dc" class=""></rect><rect width="34.14" height="224.073" x="299.965" y="-41.193" rx="17.07" transform="rotate(90 317.036 70.844)" fill="#01acad" data-original="#60c2dc" class=""></rect><path d="M158.68 135.74h222c11.15 0 20.24-7.65 20.24-17.09s-9.09-17.17-20.24-17.17H164.69a64.843 64.843 0 0 0-6.01 34.26z" fill="#01acad" data-original="#60c2dc" class=""></path></g><path fill="#2a8c8d" d="M56.76 320.33 239.64 506h238.88L239.64 263.55s-8.94-8.01-20.96-20.89q-3.735-4.14-7.46-8.4c-4.23-4.85-8.42-9.84-12.48-14.95-.05-.06-.09-.12-.13-.17-.44-.56-.87-1.12-1.31-1.69-1.07-1.36-2.07-2.72-3.15-4.15-2.41-3.16-4.82-6.45-7.15-9.79-.65-.95-1.31-1.9-1.94-2.86-.09-.12-.17-.25-.25-.37a1.213 1.213 0 0 1-.1-.14c-3.61-5.42-6.99-10.97-10.06-16.66a.035.035 0 0 1-.01-.02c-.02-.03-.04-.07-.06-.1a.355.355 0 0 0-.04-.09q-.15-.27-.42-.81c-1.01-1.97-3.21-6.35-4.64-9.42q-.3-.63-.54-1.17a9.19 9.19 0 0 1-.25-.55 138.984 138.984 0 0 1-7.63-22.03c-.45-1.81-.87-3.64-1.24-5.47a60.44 60.44 0 0 1-1.14-8.08 64.843 64.843 0 0 1 6.01-34.26q-27.465 23.595-52.89 49.39l-55.04 55.82a80.981 80.981 0 0 0 0 113.64z" data-original="#2b8abc" class=""></path><path fill="#2a8c8d" d="M184.71 200.14a1.213 1.213 0 0 0 .1.14c-.03-.05-.06-.09-.09-.14z" data-original="#2b8abc" class=""></path><path fill="#01acad" d="M161.06 149.29a138.984 138.984 0 0 0 7.63 22.03c.08.19.16.37.25.55q.24.54.54 1.17c1.43 3.07 3.63 7.45 4.64 9.42q.27.54.42.81a.355.355 0 0 1 .04.09c.02.03.04.07.06.1a.035.035 0 0 0 .01.02h138.44a17.1 17.1 0 0 0 0-34.19zM184.71 200.14a1.213 1.213 0 0 0 .1.14c.08.12.16.25.25.37.63.96 1.29 1.91 1.94 2.86 2.33 3.34 4.74 6.63 7.15 9.79 1.08 1.43 2.08 2.79 3.15 4.15.44.57.87 1.13 1.31 1.69.04.05.08.11.13.17 4.06 5.11 8.25 10.1 12.48 14.95h55.1a17.06 17.06 0 1 0 0-34.12z" data-original="#60c2dc" class=""></path></g></svg>