<svg xmlns="http://www.w3.org/2000/svg" version="1.1" xmlns:xlink="http://www.w3.org/1999/xlink" xmlns:svgjs="http://svgjs.com/svgjs" width="512" height="512" x="0" y="0" viewBox="0 0 16.933 16.933" style="enable-background:new 0 0 512 512" xml:space="preserve" class=""><g><linearGradient id="a" x1="8.467" x2="8.467" y1="295.942" y2="281.125" gradientUnits="userSpaceOnUse"><stop stop-opacity="1" stop-color="#01acad" offset="0.08301158301158301"></stop><stop stop-opacity="1" stop-color="#037c7d" offset="1"></stop></linearGradient><path fill="url(#a)" d="M3.238 280.596a1.598 1.598 0 0 0-1.65 1.588v1.058a.53.53 0 1 0 1.058 0v-1.058a.52.52 0 0 1 .55-.53.527.527 0 0 1 .251.075l10.584 6.35a.516.516 0 0 1 0 .91l-10.584 6.349c-.374.224-.8-.018-.8-.455v-8.467a.53.53 0 1 0-1.06 0v8.467c0 1.207 1.368 1.982 2.403 1.361l10.584-6.35c1.008-.604 1.008-2.117 0-2.722l-10.584-6.35a1.582 1.582 0 0 0-.752-.226z" transform="translate(0 -280.067)" data-original="url(#a)" class=""></path></g></svg>