<svg xmlns="http://www.w3.org/2000/svg" version="1.1" xmlns:xlink="http://www.w3.org/1999/xlink" xmlns:svgjs="http://svgjs.com/svgjs" width="512" height="512" x="0" y="0" viewBox="0 0 32 32" style="enable-background:new 0 0 512 512" xml:space="preserve" class=""><g transform="matrix(-1,-1.2246467991473532e-16,1.2246467991473532e-16,-1,31.989765167236325,31.983038902282722)"><path d="M29.837 23.22a19.676 19.676 0 0 0-15.525-12.636l-.024-2.746a2.066 2.066 0 0 0-3.527-1.443L2.605 14.55a2.069 2.069 0 0 0 0 2.922l8.133 8.133a2.079 2.079 0 0 0 3.528-1.461v-2.777l.075-.066c2.235.084 7.907.673 12.273 4.305a2.07 2.07 0 0 0 3.223-2.385zm-1.944.847c-4.839-4.024-11.037-4.673-13.477-4.765a2.078 2.078 0 0 0-2.15 2.065v2.777l-.114.047-8.132-8.227 8.155-8.155.113.046.024 2.747a2.067 2.067 0 0 0 1.787 2.025 17.048 17.048 0 0 1 13.794 11.44z" fill="#00bebf" data-original="#000000" class=""></path></g></svg>