<svg xmlns="http://www.w3.org/2000/svg" version="1.1" xmlns:xlink="http://www.w3.org/1999/xlink" xmlns:svgjs="http://svgjs.com/svgjs" width="512" height="512" x="0" y="0" viewBox="0 0 24 24" style="enable-background:new 0 0 512 512" xml:space="preserve" class=""><g transform="matrix(1.0000000000000002,0,0,1.0000000000000002,1.7763568394002505e-15,1.7763568394002505e-15)"><path fill="#000000" d="M18 24H6c-3.3 0-6-2.7-6-6V6c0-3.3 2.7-6 6-6h12c3.3 0 6 2.7 6 6v12c0 3.3-2.7 6-6 6z" data-original="#b7e0ff" class=""></path><path fill="#fffbfb" d="M18.5 15c-.8 0-1.5.3-2.1.9l-7.9-3.5v-.7l7.9-3.5c1.2 1.2 3.1 1.1 4.2 0s1.1-3.1 0-4.2-3.1-1.1-4.2 0c-.5.6-.9 1.3-.9 2.1v.3L7.6 9.9c-1.2-1.2-3.1-1.1-4.2 0s-1.1 3.1 0 4.2c1.2 1.1 3 1.1 4.2 0l7.9 3.5v.4c0 1.7 1.3 3 3 3s3-1.3 3-3-1.3-3-3-3z" data-original="#4171ff" class=""></path></g></svg>