<svg xmlns="http://www.w3.org/2000/svg" version="1.1" xmlns:xlink="http://www.w3.org/1999/xlink" xmlns:svgjs="http://svgjs.com/svgjs" width="512" height="512" x="0" y="0" viewBox="0 0 512 512" style="enable-background:new 0 0 512 512" xml:space="preserve" class=""><g><path fill="#00a4ff" d="M320 352a40.17 40.17 0 0 0-8 .8l-.76.373a55.999 55.999 0 1 0-110.517-.208A39.999 39.999 0 1 0 192 432h128a40 40 0 0 0 0-80z" data-original="#00a4ff"></path><g fill="#ffde8d"><path d="M42.317 197.643 53.63 186.33l15.997 15.997-11.312 11.313zM16 248h24v16H16zM104 328h16v24h-16zM42.305 314.315l15.998-15.997 11.312 11.313-15.997 15.997z" fill="#ffde8d" data-original="#ffde8d"></path></g><path fill="#00a4ff" d="m274.264 490.321 39.994-39.994 11.312 11.313-39.994 39.994zM218.27 490.315l39.994-39.994 11.312 11.313-39.994 39.994zM162.276 490.31l39.994-39.995 11.312 11.313-39.994 39.994z" data-original="#00a4ff"></path><path fill="#0053a5" d="M368 112h-23.451l20.429-19.973-11.186-11.441L321.662 112h-51.358l26.279-42.774 44.09-10.754-3.791-15.545-28.398 6.927 12.003-19.538-13.633-8.375-12.285 19.998-7.124-27.917-15.504 3.956 10.96 42.953L256 104.717l-26.901-43.786 10.96-42.953-15.504-3.956-7.124 27.917-12.285-19.998-13.633 8.375 12.003 19.538-28.398-6.927-3.791 15.545 44.09 10.754L241.696 112h-51.358l-32.13-31.414-11.186 11.441L167.451 112H144v16h23.451l-20.429 19.973 11.186 11.441L190.338 128h51.358l-26.279 42.774-44.09 10.754 3.791 15.545 28.398-6.927-12.003 19.538 13.633 8.375 12.285-19.998 7.124 27.917 15.504-3.956-10.96-42.953L256 135.283l26.901 43.786-10.96 42.953 15.504 3.956 7.124-27.917 12.285 19.998 13.633-8.375-12.003-19.538 28.398 6.927 3.791-15.545-44.09-10.754L270.304 128h51.358l32.13 31.414 11.186-11.441L344.549 128H368z" data-original="#0053a5"></path><path fill="#92d9ef" d="M464 256H320v-16h144a16 16 0 0 0 0-32h-16v-16h16a32 32 0 0 1 0 64zM432 336h-24v-16h24a16 16 0 0 0 0-32h-88v-16h88a32 32 0 0 1 0 64zM280 240h24v16h-24z" data-original="#92d9ef"></path><circle cx="112" cy="256" r="48" fill="#f78f31" data-original="#f78f31"></circle><path fill="#ffde8d" d="M184 248h24v16h-24zM104 160h16v24h-16zM154.293 309.643l11.313-11.313 15.997 15.997-11.312 11.313z" data-original="#ffde8d"></path><path fill="#008afe" d="M205.963 363.211a32.116 32.116 0 0 1 17.408 22.46 7.907 7.907 0 0 0 7.76 6.329h.143a7.938 7.938 0 0 0 7.78-9.506 48.16 48.16 0 0 0-26.284-33.751 7.917 7.917 0 0 0-11.047 9.077l.043.168a7.976 7.976 0 0 0 4.197 5.223zM306.508 354.338q-.136.048-.271.098a8.042 8.042 0 0 0-4.775 5.045 47.454 47.454 0 0 1-7.268 13.608 8.02 8.02 0 0 0 .598 10.503 8.027 8.027 0 0 0 12.116-.786 63.21 63.21 0 0 0 9.797-18.465 7.977 7.977 0 0 0-10.197-10.003z" data-original="#008afe"></path></g></svg>